<svg xmlns="http://www.w3.org/2000/svg"><symbol id="arrow" viewBox="0 0 32 32"><title>arrow</title><path fill="#fff" d="M26.272 16 14.949 4.364a1.004 1.004 0 0 1 .011-1.423.996.996 0 0 1 .717-.283.994.994 0 0 1 .706.31l12 12.333a.999.999 0 0 1 0 1.394l-12 12.333a.998.998 0 0 1-1.423.027.99.99 0 0 1-.302-.709 1.004 1.004 0 0 1 .291-.714l11.323-11.636z"/></symbol><symbol id="email-black" viewBox="0 0 32 32"><title>email-black</title><path d="M26.667 5.333H5.334A2.663 2.663 0 0 0 2.681 8l-.013 16c0 1.467 1.2 2.667 2.667 2.667h21.333c1.467 0 2.667-1.2 2.667-2.667V8c0-1.467-1.2-2.667-2.667-2.667zM26.133 11l-9.427 5.893a1.346 1.346 0 0 1-1.413 0L5.866 11a1.132 1.132 0 1 1 1.2-1.92l8.933 5.587 8.933-5.587a1.132 1.132 0 1 1 1.2 1.92z"/></symbol><symbol id="icon-check" viewBox="0 0 34 32"><title>icon-check</title><path fill="#2196f3" d="M4.267 0h25.6a4.267 4.267 0 0 1 4.267 4.267v23.467a4.267 4.267 0 0 1-4.267 4.267h-25.6A4.267 4.267 0 0 1 0 27.734V4.267A4.267 4.267 0 0 1 4.267 0z"/><path fill="#fff" stroke="#fff" stroke-width=".427" d="m8.442 16.537-.147-.14-2.205 2.088 7.767 7.41 16.318-15.567-2.19-2.089-14.128 13.465-5.416-5.167z"/></symbol><symbol id="icon-facebook" viewBox="0 0 32 32"><title>icon-facebook</title><path fill="#fff" d="M0 0v32h32V0H0zm16 8c4.4 0 8 3.6 8 8 0 4-2.9 7.4-6.9 8v-5.7H19l.4-2.3h-2.2v-1.5c0-.6.3-1.2 1.3-1.2h1v-2s-.9-.2-1.8-.2c-1.8 0-3 1.1-3 3.1V16h-2v2.3h2v5.6C10.9 23.3 8 20 8 16c0-4.4 3.6-8 8-8z"/></symbol><symbol id="icon-in" viewBox="0 0 32 32"><title>icon-in</title><path fill="#fff" d="M0 0h32v32H0V0zm8.2 13.3V24h3.4V13.3H8.2zM8 9.9c0 1.1.8 1.9 1.9 1.9s1.9-.8 1.9-1.9C11.8 8.8 11 8 9.9 8 8.9 8 8 8.8 8 9.9zM20.6 24h3.2v-6.6c0-3.3-2-4.4-3.9-4.4-1.7 0-2.9 1.1-3.2 1.8v-1.5h-3.2V24h3.4v-5.7c0-1.5 1-2.3 2-2.3s1.7.5 1.7 2.2V24z"/></symbol><symbol id="icon-inst" viewBox="0 0 32 32"><title>icon-inst</title><path fill="#fff" d="M16 18.8c-1.5 0-2.8-1.2-2.8-2.8 0-1.5 1.2-2.8 2.8-2.8 1.5 0 2.8 1.2 2.8 2.8 0 1.5-1.3 2.8-2.8 2.8z"/><path fill="#fff" d="M19.4 9.2h-6.8c-.8.1-1.2.2-1.5.3-.4.1-.7.3-1 .6-.237.237-.35.475-.485.762-.036.076-.073.155-.115.238-.015.046-.033.095-.052.148a3.52 3.52 0 0 0-.248 1.353v6.8c.1.8.2 1.2.3 1.5.1.4.3.7.6 1 .237.237.475.349.762.485.076.036.155.073.238.115.046.015.095.033.148.052.286.105.676.247 1.353.247h6.8c.8-.1 1.2-.2 1.5-.3.4-.1.7-.3 1-.6.237-.237.349-.475.485-.762.036-.076.073-.155.115-.238.015-.046.033-.095.052-.148.105-.286.247-.676.247-1.352v-6.8c-.1-.8-.2-1.2-.3-1.5-.1-.4-.3-.7-.6-1-.237-.237-.475-.35-.762-.485-.076-.036-.155-.073-.238-.115-.046-.015-.095-.033-.148-.052A3.519 3.519 0 0 0 19.4 9.2zM16 11.7c-2.4 0-4.3 1.9-4.3 4.3s1.9 4.3 4.3 4.3 4.3-1.9 4.3-4.3-1.9-4.3-4.3-4.3zm5.4-.1a1 1 0 1 1-2 0 1 1 0 0 1 2 0z"/><path fill="#fff" d="M0 0v32h32V0H0zm12.6 7.7h6.8c.9.1 1.5.2 2 .4.6.3 1 .5 1.5 1s.8 1 1 1.5c.2.5.4 1.1.4 2v6.8c-.1.9-.2 1.5-.4 2-.3.6-.5 1-1 1.5s-1 .8-1.5 1c-.5.2-1.1.4-2 .4h-6.8c-.9-.1-1.5-.2-2-.4-.6-.3-1-.5-1.5-1s-.8-1-1-1.5c-.2-.5-.4-1.1-.4-2v-6.8c.1-.9.2-1.5.4-2 .3-.6.5-1 1-1.5s1-.8 1.5-1c.5-.2 1.1-.4 2-.4z"/></symbol><symbol id="icon-tiktok" viewBox="0 0 32 32"><title>icon-tiktok</title><path fill="#fff" d="M32 0H0v32h32V0zM19.118 8c0 .238.022.472.063.698a3.839 3.839 0 0 0 3.76 3.127v2.749a6.535 6.535 0 0 1-3.823-1.23v5.591a5.07 5.07 0 0 1-5.059 5.063 5.037 5.037 0 0 1-2.899-.918 5.059 5.059 0 0 1 3.578-9.158v.65l-.008.004h.008v2.155a2.297 2.297 0 0 0-.683-.108 2.313 2.313 0 0 0-2.309 2.311 2.32 2.32 0 0 0 1.24 2.047l.033.044a.409.409 0 0 0-.029-.048c.323.171.687.267 1.073.267a2.312 2.312 0 0 0 2.305-2.225l.004-11.022h2.747z"/></symbol><symbol id="icon-twich" viewBox="0 0 32 32"><title>icon-twich</title><path fill="#fff" d="M0 0v32h32V0H0zm22.1 11.5c.7-.1 1.3-.2 1.9-.5-.4.7-1 1.3-1.7 1.7.2 4.7-3.2 9.8-9.3 9.8-1.8 0-3.5-.6-5-1.5 1.7.2 3.5-.3 4.7-1.2-1.5 0-2.7-1-3.1-2.3.5.1 1 0 1.5-.1-1.5-.4-2.6-1.8-2.6-3.3.5.2 1 .4 1.5.4-1.4-1-1.9-2.9-1-4.4 1.7 2 4.1 3.3 6.8 3.4-.5-2 1.1-4 3.2-4 .9 0 1.8.4 2.4 1 .8-.2 1.5-.4 2.1-.8-.2.8-.7 1.4-1.4 1.8z"/></symbol><symbol id="icon-youtube" viewBox="0 0 32 32"><title>icon-youtube</title><path fill="#fff" d="m18.6 16-4.2-2.4v4.8l4.2-2.4z"/><path fill="#fff" d="M0 0v32h32V0H0zm22.2 10.7c.7.2 1.2.7 1.4 1.4.4 1.3.4 3.9.4 3.9s0 2.6-.3 3.9c-.2.7-.7 1.2-1.4 1.4-1.3.3-6.3.3-6.3.3s-5.1 0-6.3-.3c-.7-.2-1.2-.7-1.4-1.4C8 18.6 8 16 8 16s0-2.6.2-3.9c.2-.7.7-1.2 1.4-1.4 1.3-.3 6.3-.3 6.3-.3s5.1 0 6.3.3z"/></symbol><symbol fill="none" id="logo" viewBox="0 0 55 41"><title>logo</title><path d="M39.935 14.623c-1.379 0-2.647.179-3.805.537-1.158.359-2.164.896-3.02 1.613-.854.717-1.516 1.627-1.984 2.73-.469 1.075-.717 2.371-.745 3.887v10.878h-3.846V5.317h3.846v9.636c1.158-1.213 2.564-2.136 4.219-2.77 1.654-.635 3.488-.952 5.5-.952 1.572 0 3.006.207 4.302.62 1.295.414 2.398 1.034 3.308 1.862.938.8 1.655 1.82 2.15 3.06.497 1.213.745 2.647.745 4.301v13.194H46.76v-11.87c0-1.048-.096-2.04-.29-2.978a6.3 6.3 0 0 0-1.075-2.481c-.524-.717-1.227-1.283-2.11-1.696-.854-.414-1.97-.62-3.35-.62Z" fill="#FF6B00"/><path d="M26.852 31.372c-1.158 1.241-2.605 2.206-4.343 2.896-1.737.716-3.694 1.061-5.872 1.033-1.986 0-3.778-.234-5.377-.703-1.572-.468-2.923-1.185-4.053-2.15-1.13-.965-1.999-2.178-2.606-3.64-.606-1.489-.923-3.24-.95-5.252 0-2.068.289-3.86.868-5.377.606-1.516 1.475-2.77 2.605-3.763 1.158-.993 2.55-1.723 4.177-2.192 1.655-.497 3.53-.745 5.625-.745 4.219 0 7.445 1.076 9.678 3.226V5.317h3.846v28.95h-3.846l.248-2.895Zm-19.273-7.94c.055 3.005.869 5.142 2.44 6.41 1.572 1.241 3.847 1.861 6.824 1.861 1.49 0 2.826-.151 4.012-.455 1.213-.303 2.233-.785 3.06-1.447.828-.662 1.462-1.516 1.903-2.564.469-1.048.717-2.316.744-3.805-.055-3.033-.882-5.184-2.481-6.452-1.572-1.296-3.956-1.958-7.155-1.985-3.198 0-5.542.648-7.03 1.944-1.49 1.295-2.262 3.46-2.317 6.493Z" fill="#FF6B00"/><circle cx="17" cy="23" r="1" fill="#FF6B00"/></symbol><symbol id="person-black" viewBox="0 0 32 32"><title>person-black</title><path d="M16 16c2.947 0 5.333-2.387 5.333-5.333S18.946 5.334 16 5.334c-2.947 0-5.333 2.387-5.333 5.333S13.054 16 16 16zm0 2.667c-3.56 0-10.667 1.787-10.667 5.333v1.333c0 .733.6 1.333 1.333 1.333h18.667c.733 0 1.333-.6 1.333-1.333V24c0-3.547-7.107-5.333-10.667-5.333z"/></symbol><symbol id="phone-black" viewBox="0 0 32 32"><title>phone-black</title><path d="m24.882 19.773-3.268-.373a2.561 2.561 0 0 0-2.11.733L17.137 22.5a19.357 19.357 0 0 1-8.478-8.478l2.38-2.38a2.561 2.561 0 0 0 .733-2.11l-.373-3.242a2.575 2.575 0 0 0-2.56-2.277H6.613c-1.454 0-2.663 1.209-2.573 2.663.682 10.987 9.469 19.761 20.443 20.443 1.454.09 2.663-1.119 2.663-2.573V22.32a2.549 2.549 0 0 0-2.264-2.547z"/></symbol><symbol id="quotes" viewBox="0 0 32 32"><title>quotes</title><path fill="#fff" d="M10.787 15.507H4.534c.107-6.227 1.333-7.253 5.16-9.52a.93.93 0 0 0 .32-1.28.93.93 0 0 0-1.28-.32C4.227 7.054 2.654 8.68 2.654 16.44v7.187c0 2.28 1.853 4.12 4.12 4.12h4c2.347 0 4.12-1.773 4.12-4.12v-4c.013-2.347-1.76-4.12-4.107-4.12z"/><path fill="#fff" opacity=".4" d="M25.213 15.507H18.96c.107-6.227 1.333-7.253 5.16-9.52a.93.93 0 0 0 .32-1.28.93.93 0 0 0-1.28-.32c-4.507 2.667-6.08 4.293-6.08 12.053v7.187c0 2.28 1.853 4.12 4.12 4.12h4c2.347 0 4.12-1.773 4.12-4.12v-4c.013-2.347-1.76-4.12-4.107-4.12z"/></symbol><symbol id="square" viewBox="0 0 34 32"><title>square</title><path d="M30.341 3.556v24.889H3.793V3.556h26.548zm0-3.556H3.793C1.707 0 0 1.6 0 3.556v24.889c0 1.956 1.707 3.556 3.793 3.556h26.548c2.086 0 3.793-1.6 3.793-3.556V3.556C34.134 1.6 32.427 0 30.341 0z"/></symbol><symbol id="star" viewBox="0 0 32 32"><title>star</title><path fill="#ff6b00" d="m16 0 3.592 11.056h11.625l-9.405 6.833 3.592 11.056-9.405-6.833-9.405 6.833 3.592-11.056-9.405-6.833h11.625L15.998 0z"/></symbol><symbol id="vector" viewBox="0 0 32 32"><title>vector</title><path d="M32 3.223 28.777 0 16 12.777 3.223 0 0 3.223 12.777 16 0 28.777 3.223 32 16 19.223 28.777 32 32 28.777 19.223 16 32 3.223z"/></symbol></svg>