<!-- Generated by IcoMoon.io -->
<svg version="1.1" xmlns="http://www.w3.org/2000/svg" width="32" height="32" viewBox="0 0 32 32">
<title>arrow</title>
<path fill="#fff" d="M26.272 16l-11.323-11.636c-0.093-0.094-0.167-0.205-0.217-0.328s-0.075-0.254-0.074-0.386c0.001-0.132 0.028-0.263 0.080-0.385s0.127-0.232 0.222-0.324c0.095-0.092 0.207-0.165 0.33-0.213s0.254-0.072 0.387-0.070c0.132 0.003 0.262 0.031 0.384 0.084s0.23 0.13 0.322 0.226l12 12.333c0.182 0.187 0.283 0.437 0.283 0.697s-0.102 0.511-0.283 0.697l-12 12.333c-0.091 0.096-0.2 0.172-0.322 0.226s-0.251 0.082-0.384 0.084c-0.132 0.003-0.264-0.021-0.387-0.070s-0.235-0.121-0.33-0.213c-0.095-0.092-0.17-0.202-0.222-0.324s-0.079-0.252-0.080-0.385c-0.001-0.132 0.024-0.263 0.074-0.386s0.124-0.234 0.217-0.328l11.323-11.636z"></path>
</svg>
