<!-- Generated by IcoMoon.io -->
<svg version="1.1" xmlns="http://www.w3.org/2000/svg" width="32" height="32" viewBox="0 0 32 32">
<title>icon-tiktok</title>
<path fill="#fff" d="M32 0h-32v32h32v-32zM19.118 8c0 0.238 0.022 0.472 0.063 0.698 0.197 1.048 0.817 1.947 1.678 2.507 0.601 0.394 1.314 0.62 2.082 0.62l-0 0.613v2.136c-1.425 0-2.747-0.457-3.823-1.23v5.591c0 2.79-2.272 5.063-5.059 5.063-1.076 0-2.079-0.342-2.899-0.918-1.307-0.918-2.16-2.433-2.16-4.146 0-2.794 2.268-5.063 5.055-5.060 0.234 0 0.46 0.019 0.683 0.048v0.65l-0.008 0.004 0.008-0v2.155c-0.215-0.067-0.445-0.108-0.683-0.108-1.273 0-2.309 1.037-2.309 2.311 0 0.888 0.505 1.657 1.24 2.047 0.011 0.015 0.022 0.030 0.033 0.044-0.008-0.016-0.018-0.032-0.029-0.048 0.323 0.171 0.687 0.267 1.073 0.267 1.243 0 2.261-0.992 2.305-2.225l0.004-11.022h2.747z"></path>
</svg>
