<!-- Generated by IcoMoon.io -->
<svg version="1.1" xmlns="http://www.w3.org/2000/svg" width="32" height="32" viewBox="0 0 32 32">
<title>icon-inst</title>
<path fill="#fff" d="M16 18.8c-1.5 0-2.8-1.2-2.8-2.8 0-1.5 1.2-2.8 2.8-2.8 1.5 0 2.8 1.2 2.8 2.8 0 1.5-1.3 2.8-2.8 2.8z"></path>
<path fill="#fff" d="M19.4 9.2h-6.8c-0.8 0.1-1.2 0.2-1.5 0.3-0.4 0.1-0.7 0.3-1 0.6-0.237 0.237-0.35 0.475-0.485 0.762-0.036 0.076-0.073 0.155-0.115 0.238-0.015 0.046-0.033 0.095-0.052 0.148-0.105 0.286-0.248 0.676-0.248 1.353v6.8c0.1 0.8 0.2 1.2 0.3 1.5 0.1 0.4 0.3 0.7 0.6 1 0.237 0.237 0.475 0.349 0.762 0.485 0.076 0.036 0.155 0.073 0.238 0.115 0.046 0.015 0.095 0.033 0.148 0.052 0.286 0.105 0.676 0.247 1.353 0.247h6.8c0.8-0.1 1.2-0.2 1.5-0.3 0.4-0.1 0.7-0.3 1-0.6 0.237-0.237 0.349-0.475 0.485-0.762 0.036-0.076 0.073-0.155 0.115-0.238 0.015-0.046 0.033-0.095 0.052-0.148 0.105-0.286 0.247-0.676 0.247-1.352v-6.8c-0.1-0.8-0.2-1.2-0.3-1.5-0.1-0.4-0.3-0.7-0.6-1-0.237-0.237-0.475-0.35-0.762-0.485-0.076-0.036-0.155-0.073-0.238-0.115-0.046-0.015-0.095-0.033-0.148-0.052-0.286-0.105-0.676-0.248-1.352-0.248zM16 11.7c-2.4 0-4.3 1.9-4.3 4.3s1.9 4.3 4.3 4.3c2.4 0 4.3-1.9 4.3-4.3s-1.9-4.3-4.3-4.3zM21.4 11.6c0 0.552-0.448 1-1 1s-1-0.448-1-1c0-0.552 0.448-1 1-1s1 0.448 1 1z"></path>
<path fill="#fff" d="M0 0v32h32v-32h-32zM12.6 7.7h6.8c0.9 0.1 1.5 0.2 2 0.4 0.6 0.3 1 0.5 1.5 1s0.8 1 1 1.5c0.2 0.5 0.4 1.1 0.4 2v6.8c-0.1 0.9-0.2 1.5-0.4 2-0.3 0.6-0.5 1-1 1.5s-1 0.8-1.5 1c-0.5 0.2-1.1 0.4-2 0.4h-6.8c-0.9-0.1-1.5-0.2-2-0.4-0.6-0.3-1-0.5-1.5-1s-0.8-1-1-1.5c-0.2-0.5-0.4-1.1-0.4-2v-6.8c0.1-0.9 0.2-1.5 0.4-2 0.3-0.6 0.5-1 1-1.5s1-0.8 1.5-1c0.5-0.2 1.1-0.4 2-0.4z"></path>
</svg>
