<!-- Generated by IcoMoon.io -->
<svg version="1.1" xmlns="http://www.w3.org/2000/svg" width="32" height="32" viewBox="0 0 32 32">
<title>quotes</title>
<path fill="#fff" d="M10.787 15.507h-6.253c0.107-6.227 1.333-7.253 5.16-9.52 0.44-0.267 0.587-0.827 0.32-1.28-0.267-0.44-0.827-0.587-1.28-0.32-4.507 2.667-6.080 4.293-6.080 12.053v7.187c0 2.28 1.853 4.12 4.12 4.12h4c2.347 0 4.12-1.773 4.12-4.12v-4c0.013-2.347-1.76-4.12-4.107-4.12z"></path>
<path fill="#fff" opacity="0.4" d="M25.213 15.507h-6.253c0.107-6.227 1.333-7.253 5.16-9.52 0.44-0.267 0.587-0.827 0.32-1.28-0.267-0.44-0.827-0.587-1.28-0.32-4.507 2.667-6.080 4.293-6.080 12.053v7.187c0 2.28 1.853 4.12 4.12 4.12h4c2.347 0 4.12-1.773 4.12-4.12v-4c0.013-2.347-1.76-4.12-4.107-4.12z"></path>
</svg>
